inDegrees=no
num_controls=7
num_derivatives=13
num_iterations=166
num_multipliers=7
num_parameters=0
num_slacks=7
num_states=26
objective=0.493912
objective_accelerations=0.011261
objective_balance=0.003925
objective_effort=0.017267
objective_height=0.360108
objective_ligament=0.101352
solver_duration=2039.183489
status=Solve_Succeeded
success=true
DataType=double
version=3
OpenSimVersion=4.5
endheader
time	/jointset/ground_pelvis/pelvis_tilt/value	/jointset/ground_pelvis/pelvis_tx/value	/jointset/ground_pelvis/pelvis_ty/value	/jointset/hip_l/hip_flexion_l/value	/jointset/hip_l/hip_adduction_l/value	/jointset/hip_l/hip_rotation_l/value	/jointset/back/lumbar_extension/value	/jointset/patellofemoral_l/patellar_flexion_l/value	/jointset/knee_l/knee_flexion_l/value	/jointset/knee_l/knee_adduction_l/value	/jointset/knee_l/knee_rotation_l/value	/jointset/ankle_l/ankle_angle_l/value	/jointset/subtalar_l/subtalar_angle_l/value	/jointset/ground_pelvis/pelvis_tilt/speed	/jointset/ground_pelvis/pelvis_tx/speed	/jointset/ground_pelvis/pelvis_ty/speed	/jointset/hip_l/hip_flexion_l/speed	/jointset/hip_l/hip_adduction_l/speed	/jointset/hip_l/hip_rotation_l/speed	/jointset/back/lumbar_extension/speed	/jointset/patellofemoral_l/patellar_flexion_l/speed	/jointset/knee_l/knee_flexion_l/speed	/jointset/knee_l/knee_adduction_l/speed	/jointset/knee_l/knee_rotation_l/speed	/jointset/ankle_l/ankle_angle_l/speed	/jointset/subtalar_l/subtalar_angle_l/speed	/forceset/tau_hip_flexion_l	/forceset/tau_hip_adduction_l	/forceset/tau_hip_rotation_l	/forceset/tau_knee_flexion_l	/forceset/tau_ankle_angle_l	/forceset/tau_subtalar_angle_l	/forceset/tau_lumbar_extension	lambda_cid13_p0	lambda_cid13_p1	lambda_cid13_p2	lambda_cid13_p3	lambda_cid13_p4	lambda_cid13_p5	lambda_cid14_p0	/jointset/ground_pelvis/pelvis_tilt/accel	/jointset/ground_pelvis/pelvis_tx/accel	/jointset/ground_pelvis/pelvis_ty/accel	/jointset/hip_l/hip_flexion_l/accel	/jointset/hip_l/hip_adduction_l/accel	/jointset/hip_l/hip_rotation_l/accel	/jointset/back/lumbar_extension/accel	/jointset/patellofemoral_l/patellar_flexion_l/accel	/jointset/knee_l/knee_flexion_l/accel	/jointset/knee_l/knee_adduction_l/accel	/jointset/knee_l/knee_rotation_l/accel	/jointset/ankle_l/ankle_angle_l/accel	/jointset/subtalar_l/subtalar_angle_l/accel	gamma_cid13_p0	gamma_cid13_p1	gamma_cid13_p2	gamma_cid13_p3	gamma_cid13_p4	gamma_cid13_p5	gamma_cid14_p0
0	-0.01386613412496169	0.04578201573259326	0.923693484187359	0.3085816938045678	-0.2553000854892333	-0.3203150564572393	-0.3879492264334186	0.2499269421184952	0.2499269421184919	-0.08968372181926382	-0.1745309276279902	-0.0008036623358878681	0.04267271067789897	0	0	0	0	0	0	0	0	0	0	0	0	0	0.0762336393408537	-0.03226607843721691	-0.0140450986054496	-0.2824680438972054	0.2563498133120377	-0.03691002607703633	0.01403073572088123	35.39506797757927	9.210847326402952	-1.212572302906248	0.2887966996816229	-657.5198511214739	-61.40198057211888	-22.90160835817098	-0.4470075687506169	-1.434092839453464	-0.3932297289362586	4.264020598992531	0.3073256384734329	0.7277595478305502	-6.370029105481085	2.968152958981086	2.968152958979757	1.651466207682234	0.002948579862741489	-0.4055206775207714	0.1598913550044207	9.616371054682376e-09	3.654040682327721e-08	-3.003181868645341e-08	-2.202424391548921e-10	1.946736887249221e-08	1.446158722065257e-08	9.440691935938295e-09
0.01	-0.01388685590675404	0.04571044847278497	0.9236741382494306	0.3087905942878153	-0.2552858179274924	-0.3202778669536995	-0.38826562181596	0.2500721262056796	0.2500721262056634	-0.08960475249405828	-0.174529736510903	-0.0008254588573038445	0.04267897121258721	-0.004113407013950992	-0.0143104439632157	-0.003860798509132555	0.04160364615455967	0.002771863689471596	0.007402239473959819	-0.0629447015164338	0.02885350085668185	0.02885350085667793	0.01555752899440643	0.000209501143770833	-0.004469022573085552	0.001125657993034333	0.0687800756202282	-0.03947591623306614	-0.01342951986955849	-0.271509415576846	0.2377071007535014	-0.02377119600351585	0.01965663976055913	29.96959664044546	4.318381929602711	-0.2769694767455403	3.224341367573974	-658.5891420583299	-70.87637476416583	-22.90336472057363	-0.3888644591616263	-1.429069019211164	-0.3812426569417773	4.082069778816464	0.2498658920449002	0.7411139943259863	-6.206534425557866	2.816449274107766	2.816449274108034	1.472449968848671	0.02563581792141346	-0.484049055727197	0.06993332658437504	1.252102315517437e-08	4.027347138216981e-08	-1.471737477192949e-08	-5.414750319532425e-10	2.548257891699006e-08	9.783710839797523e-09	1.013729518884928e-08
0.02	-0.01394778319698329	0.04549586700445334	0.9236164367774028	0.3094102378636325	-0.2552462818972882	-0.3201677234859946	-0.3892014329638367	0.2505003454264353	0.2505003454264367	-0.08937729713420531	-0.1745273133951629	-0.0008952368061574949	0.04269269438823199	-0.008041101685651322	-0.02860284170466963	-0.00767110681988442	0.08214861851426608	0.005053693693356178	0.01459079283380919	-0.1238831530661818	0.05660702671720374	0.05660702671720143	0.02969720692996745	0.0002463997390278201	-0.009596285487160417	0.001492528191326056	0.06132651189964303	-0.0466857540288537	-0.01281394113357651	-0.260550787256479	0.219064388194985	-0.01063236592992434	0.02528254380023897	24.56908718523385	-0.5765277018436613	0.6568224864238549	6.189150486724121	-659.240014226192	-80.3202795019983	-22.9086077612323	-0.4098651003003675	-1.430483595101174	-0.383131689260119	4.05228584002183	0.2093189013560127	0.6850223250084124	-5.968779112143803	2.748157959749109	2.748157959748888	1.367895995913127	-0.03157192984009154	-0.5371687457186999	0.008133796055857163	1.542567525566637e-08	4.40065359410624e-08	5.970691425944307e-10	-8.627076247515929e-10	3.14977889614879e-08	5.105834458942473e-09	1.083389844176026e-08
0.03	-0.01404753812988756	0.04514010422307658	0.9235209451336854	0.3104290007590722	-0.2551864111094426	-0.3199862388194384	-0.3907364326307418	0.2512015044134448	0.2512015044134476	-0.0890152994110059	-0.1745248794546941	-0.001016982530205622	0.04270722797908068	-0.01191397649954992	-0.04238112563977496	-0.01141090827266325	0.1213054021566882	0.006829737775893358	0.02170819724359998	-0.182780078197523	0.08353030388538087	0.08353030388538019	0.04247888453046893	0.0002448724817638217	-0.0146033198048313	0.001375403594083133	0.06122651227621049	-0.04514484344009065	-0.01295388050733681	-0.2655189659538907	0.2301497994275312	-0.01464266180452459	0.02680476553610709	27.94533723024538	0.7040812939320504	0.3040593434535922	2.491665244188336	-660.3598919225855	-77.59005600323913	-22.91723618211122	-0.3766113393065184	-1.326212627062365	-0.3669510017784707	3.802592471922553	0.1481295447812153	0.7254100145621554	-5.799643895706303	2.650240405764489	2.650240405764956	1.199793367114435	0.01622827244291023	-0.4600360312193315	-0.02746096965034233	9.07048680163542e-09	2.75681396627515e-08	9.91668765548287e-09	1.526357877926748e-09	1.15945093608921e-08	-8.243929565236161e-10	6.725959462578799e-09
0.04	-0.01418614434441411	0.04465161623547927	0.9233885461497419	0.3118303750600482	-0.2551115034041547	-0.3197335180056658	-0.3928503004853771	0.2521690617342277	0.2521690617342238	-0.08853218696678869	-0.1745223265075623	-0.001184311648716522	0.04271942524754965	-0.01581135800830346	-0.05514788294877992	-0.01505257486508609	0.1586708996219163	0.008061077181569074	0.0288380222773014	-0.239656790611927	0.1098866934700569	0.1098866934700601	0.05392015113079709	0.000270201068996042	-0.01871296437962314	0.001025263715399024	0.06112651265281385	-0.04360393285131824	-0.0130938198811812	-0.2704871446512792	0.2412352106600869	-0.01865295767911018	0.02832698727199308	31.34408332735608	1.98198892244606	-0.04968683875146267	-1.179830006505349	-661.1022880342327	-74.83098516891206	-22.92914854960809	-0.4147664392712488	-1.228178269881152	-0.3635047171889166	3.694028604582954	0.1003779659837007	0.6875064497904929	-5.564736568756254	2.634780443048903	2.634780443049131	1.099813795878436	-0.02620076094090738	-0.3576907971429443	-0.0384692602324176	2.524373800088528e-09	1.071383697542608e-08	1.911270152091491e-08	3.971305815563373e-09	-8.843172088056172e-09	-6.780442042806432e-09	2.518957756962435e-09
0.05	-0.01436361764763044	0.04404004881718953	0.9232202146957319	0.313596442025488	-0.2550266534615184	-0.3194107536329263	-0.3955210378454487	0.2533966094319722	0.2533966094319701	-0.08794079016721247	-0.1745203663851813	-0.001389153214090451	0.04272700229159381	-0.01965324237244368	-0.06704377540541771	-0.01859700471004546	0.1942335148465256	0.008849506613767703	0.03569102297124133	-0.2939856818143801	0.1354572181127822	0.1354572181127529	0.06417367328072411	0.0001290123816395608	-0.02219203874426157	0.0004520753058123132	0.05434453662688669	-0.04234402305727863	-0.01272052636241463	-0.2646297965174655	0.2356070972509299	-0.01617336305270717	0.03448393509182118	29.6334255378085	1.133965092548862	0.1662216258097072	-1.398185112781972	-662.352751448818	-75.74289444179935	-22.94424770220107	-0.3643894618742747	-1.152020124070122	-0.3474073678977297	3.441031879624076	0.05916070860374786	0.6806195928978117	-5.291215457467208	2.493343810224176	2.493343810219208	0.9602942367659357	-0.00699630066093569	-0.3335178510680745	-0.0724580903554012	-1.589311692360243e-09	-2.395705434410412e-09	2.590257028517394e-08	6.034562316093328e-09	-2.375825650172063e-08	-1.180933022058566e-08	-1.967683972199306e-10
0.06	-0.01457860779987531	0.04331317739623038	0.9230169398933226	0.3157088659228149	-0.2549357021692062	-0.3190201747105083	-0.3987199141298433	0.2548748934432105	0.2548748934432175	-0.08725242358368816	-0.1745196018252761	-0.001626885942100277	0.04272770455973525	-0.02331472781211372	-0.07820868348266187	-0.02204124454494724	0.2279422860001026	0.009281347116587126	0.0424009322132643	-0.3452845754759111	0.1600339561690997	0.1600339561690358	0.07331410791929345	3.10885731662242e-05	-0.02529119690665148	-0.000349691465119817	0.04756256060098155	-0.04108411326321253	-0.012347232843655	-0.2587724483836439	0.2299789838417822	-0.01369376842627274	0.04064088291165262	27.94330760996677	0.2836395483491098	0.3810183530790865	-1.599196379325402	-663.2643928551857	-76.62564055161147	-22.96236837069765	-0.3786866543771175	-1.081981394002458	-0.3434667151773944	3.323259790376428	0.02906018010784172	0.658888159407082	-4.958737060571727	2.436023125767361	2.436023125767163	0.8771962936068708	-0.01754778516431131	-0.2817075566932756	-0.08418493250153113	-5.600579184425933e-09	-1.534757372729999e-08	3.2591127676752e-08	8.08174759821879e-09	-3.844081051389943e-08	-1.679918004432263e-08	-2.84970400186823e-09
0.07000000000000001	-0.01482942890787619	0.04247813431478072	0.922779657014776	0.3181497153471575	-0.2548420821813691	-0.3185633341403272	-0.4024175142654627	0.2565943028202112	0.256594302820225	-0.0864778218665293	-0.1745197447339035	-0.001893775469898623	0.04271936371001199	-0.02681881692992556	-0.08869493945777394	-0.02540343992638959	0.2599585678482457	0.00939199452410972	0.04895999950553956	-0.3938305518361734	0.1837071909150944	0.1837071909150933	0.08144440727795231	-3.911149099309995e-05	-0.02803161676087286	-0.00135061492619119	0.04149952674518399	-0.03940776205366663	-0.01201486508022757	-0.2540144663465599	0.2258839229741849	-0.01223654161328541	0.04614090047177932	26.70239563417426	-0.1880235685472364	0.5202530748740354	-1.892102619471463	-663.9744703908206	-76.79802775884704	-22.98329594911291	-0.331667253571847	-1.016197055741853	-0.3308201300573314	3.100458173538561	-0.005532006156897452	0.6533320906545891	-4.741792951711647	2.31186500368073	2.31186500369023	0.7566721163710737	0.001334322068770288	-0.2619454893000104	-0.1128678296832119	-9.55160256523586e-09	-3.096026722100075e-08	3.560856791524268e-08	9.123824020848164e-09	-4.861746537772625e-08	-2.044473388825726e-08	-5.919936678750935e-09
0.08	-0.01511437034968105	0.04154137880228464	0.9225091073463293	0.3209026567482812	-0.2547488755249011	-0.3180411196819211	-0.4065884271702778	0.2585462228156085	0.2585462228156318	-0.08562677208390294	-0.1745199715553441	-0.002186416454142177	0.04270004927032321	-0.03013879457126134	-0.09855116969194393	-0.02869460252500598	0.2903606813566029	0.009198680842371791	0.05547570985848971	-0.4399471293147468	0.206536079847697	0.206536079847756	0.08860372101163486	1.430600926763615e-05	-0.03044148819563203	-0.00254440945819544	0.03543649288941974	-0.03773141084411311	-0.01168249731683576	-0.2492564843094553	0.2217888621065963	-0.01077931480028613	0.05164091803192185	25.47979044611624	-0.6617886085371247	0.658562659897183	-2.172900225195133	-664.3850532022884	-76.94230645265741	-23.00679768523097	-0.3418643590818311	-0.9559762458140637	-0.3292601586121998	3.000426122419183	-0.03173203774427973	0.6502167715420567	-4.472857284233865	2.267153963088923	2.267153963088206	0.6829991686115816	0.007175727719686264	-0.2155978728008595	-0.1227591466881301	-1.349873922919057e-08	-4.67446268566893e-08	3.838916188579223e-08	1.010105471060682e-08	-5.850341707069164e-08	-2.400355895930141e-08	-9.017091747390694e-09
